<?xml version="1.0" encoding="UTF-8"?>
<svg version="1.1" viewBox="0 0 1120 1120" width="200" height="200" xmlns="http://www.w3.org/2000/svg">
<path transform="translate(0)" d="m0 0h1120v1120h-1120z" fill="#232323"/>
<path transform="translate(663,347)" d="m0 0h2l5 11 6 28 2 16-1 15-5 14-5 12-1 5v14l3 13 6 10 7 6 12 5 20 7 15 8 10 8 12 12 9 13 8 15 7 21 4 20 2 24v12l-2 22v7l5-2 7-8 7-14 4-15v-19l-3-15-6-18-10-20-19-29-10-17-5-13-1-5v-18l4-11 7-9 9-6 7-3 5-1h10l13 4 11 8 6 9 4 13v11l-3 10-6 9-10 6-10 1-8-4-4-5-2-10 2-8 7-6h9l5 4 1 9-2 4-5 2v-7l-7 1-2 2v7l3 3 2 1h8l7-4 4-8 1-11-3-12-5-8-6-5-7-3h-15l-10 5-6 9-2 9v8l3 12 8 17 17 26 13 21 8 17 4 15 2 12v22l-3 14-6 15-7 12-11 12-8 7-16 8-11 3-14 1h-48l-7-2 2-6 5-6 9-3h17v-2l-4-2-7-6-5-8-3-8-1-6v-11l3-10 7-11 9-6 8-3-10 2-9 6-6 7-4 9-1 3v19l5 13 7 9v3l-12 1-8 4-7 13h-22l1-6 6-9 5-4 5-3 4-10 2-24v-33l-4-8-4-2-3 10-9 39-5 30-6 15-5 5h-23l1-7 4-6 6-5 5-1 2-7 1-8v-63l-1-21-4-8-7-9-7-12-5-14-1-6v-19l4-16 11-25 2-7v-10l-3-5v-2l-6-2h-17l-7-6-2-4v-8l-4-1-1-5 8-7 3-9 4-9 7-7 13-8 5-4 1-4v-11l-1-9 4 2 7 11 5 9 3 1 3-3 5-12z" fill="#FBFBFB"/>
<path transform="translate(466,392)" d="m0 0h22l13 3 10 6 8 9 8 5 15 5 25 7 7 3-1 5-5 4-3 2-7 8-12 6-10 2h-10l-19-2v2l12 2-1 2-17 4-6 3h6l-1 8v22l3 18 7 25 4 18v14l-3 12-5 12-8 14-10 13-17 17-5 3-2 20-5 7 1 8 1 2 9 2 5 5 2 4v6l-3 1-15 1-7-2-3-4-4-15-4-5 1-10v-14l-18 2-12 3-16 8-10 8-8 8h-2l2-5 5-10 1-8-2-10-5-8-8-5-6-2v2l6 2 7 6 4 9v10l-4 10-9 10-5 3h16l8 2 8 9 1 5h-60l-7-4-7-8-4-5-5-11v-16l4-14 7-13 8-11 11-12 10-9 13-10 21-14 17-10 18-11 12-11 6-10 5-13 3-15 2-15h11l8-4 4-5 3-10v-12l-3-12-7-17-4-13v-9l-2 6 1 11 8 20 3 11v17l-4 8-4 4-3 1h-12l-10-5-10-9-7-10-7-14-2-7 1-8 3-5 10-8 13-13 4-5 7-4z" fill="#FBFBFB"/>
<path transform="translate(541,269)" d="m0 0h32l29 3 25 5 24 7 21 8 25 12 17 10 12 8 16 12 13 12 4 3-1 4h-3l-8-7-17-14-21-14-21-12-22-10-33-11-22-5-27-4-16-1h-19l-26 2-25 4-26 7-24 9-25 12-14 8-12 8-14 10-11 9-10 9-4 2-1 3h-2v2h-2l-1 3h-2l-2 4-11 12-12 16-13 21-12 23-9 21-7 22-5 22-3 21-1 12v37l2 24-3 1-3-9-2-19v-32l3-29 5-25 7-23 11-26 13-25 14-21 12-16 14-15 16-16 11-9 13-10 15-10 15-9 15-8 24-10 21-7 24-6 18-3z" fill="#FBFBFB"/>
<path transform="translate(332,723)" d="m0 0 5 1 8 10 7 7 7 8 14 13 17 13 14 10 19 11 27 13 30 10 22 5 28 4 14 1h26l31-3 28-6 27-9 26-12 14-8 5-3 3 1-1 4-14 9-16 8-16 7-27 9-27 6-27 3h-38l-28-3-24-5-21-6-21-8-25-12-17-10-17-12-10-8-12-11-8-7-14-15-9-12z" fill="#FBFBFB"/>
<path transform="translate(487,631)" d="m0 0h1l-2 30-2 5 1 7 4 6v2l9 1 7 6 2 5v5l-3 1h-17l-4-5-6-10-6-8-1-3v-27l11-9z" fill="#FBFBFB"/>
<path transform="translate(289,610)" d="m0 0h1l2 22 4 14 7 13 8 7 3 18 2 10-7-6-7-8-8-14-5-11-5-19v-17l4-8z" fill="#FBFBFB"/>
<path transform="translate(607,765)" d="m0 0h7l6 3 4 6 1 8-3 7-5 4-3 1h-8l-6-4-3-4-1-10 3-6 5-4z" fill="#FBFBFB"/>
<path transform="translate(480,716)" d="m0 0h10l8 3 3 4 1 6-2 5-4 4 1 5 6 10h-5l-9-13h-5l-1 13h-4v-36z" fill="#FBFBFB"/>
<path transform="translate(447,717)" d="m0 0h15l6 5 1 2v10l-5 6-6 2h-6v7l-1 5-4-1z" fill="#FBFBFB"/>
<path transform="translate(647,716)" d="m0 0 3 3 10 23 12-26h2l4 30 1 7-4 1-2-4-2-15-1-3-7 16-2 5-3-3-7-17v-3h-2l-1 15-2 9-3-1v-9z" fill="#FBFBFB"/>
<path transform="translate(547,716)" d="m0 0 3 3 10 22 2-2 9-21 2-2 2 10 3 23v4l-5-1-3-21-8 20h-3l-8-19-1 1-3 20h-5l3-22z" fill="#FBFBFB"/>
<path transform="translate(632,766)" d="m0 0h13l5 3 1 2v7l-4 4 2 5 3 4v3l-5-1-7-9h-2l-1 9-4 1-1-1z" fill="#FBFBFB"/>
<path transform="translate(455,766)" d="m0 0h14l5 4 1 7-4 6-4 2h-7v9l-5-1z" fill="#FBFBFB"/>
<path transform="translate(606,717)" d="m0 0 4 1 1 24 2 5 4 2 6-1 4-4 1-27h5v26l-4 8-7 3-9-1-6-5-1-2z" fill="#FBFBFB"/>
<path transform="translate(512,717)" d="m0 0h22v4h-17v12h15l-1 3-13 1-1 12h17l1 4h-23z" fill="#FBFBFB"/>
<path transform="translate(396,682)" d="m0 0h10l6 3 4 5 2 4v4l-6 1h-8l-5-2-7-9 1-5z" fill="#FBFBFB"/>
<path transform="translate(481,766)" d="m0 0h19v4h-14v8h11l1 4h-12v7h13l1 5h-18l-1-1z" fill="#FBFBFB"/>
<path transform="translate(607,770)" d="m0 0h7l5 4 1 8-2 5-6 3-6-1-5-6v-7l4-5z" fill="#232323"/>
<path transform="translate(659,766)" d="m0 0h18v4h-13v8h11v4h-11v8h13l1 3-1 1h-18z" fill="#FBFBFB"/>
<path transform="translate(554,765)" d="m0 0 8 1 3 4-4 1h-9l-1 5 10 3 4 4v6l-4 4-2 1h-9l-5-2 1-5 6 2 7-1v-4l-12-6-1-2v-7l4-3z" fill="#FBFBFB"/>
<path transform="translate(570,766)" d="m0 0h22v4h-9v24l-5-1v-22h-8z" fill="#FBFBFB"/>
<path transform="translate(452,721)" d="m0 0h8l4 2 1 2v8l-4 4h-9l-1-1v-14z" fill="#232323"/>
<path transform="translate(483,721)" d="m0 0h10l4 4v6l-3 4-3 1h-7l-1-1z" fill="#232323"/>
<path transform="translate(505,766)" d="m0 0h21v4h-8v24l-4-1v-22l-8-1z" fill="#FBFBFB"/>
<path transform="translate(589,717)" d="m0 0h4v36h-4z" fill="#FBFBFB"/>
<path transform="translate(624,401)" d="m0 0h7l8 4-3 1-5-2-2 7-5 1-6 1 1-6 3-5z" fill="#232323"/>
<path transform="translate(495,407)" d="m0 0 6 1 3 6v2h-5l-4 1-5-3v-3z" fill="#232323"/>
<path transform="translate(460,770)" d="m0 0h8l2 3-1 6-1 1h-8z" fill="#232323"/>
<path transform="translate(637,770)" d="m0 0h6l3 2v5l-5 3h-4z" fill="#232323"/>
</svg>
